<?xml version="1.0" encoding="utf-8"?>
<!-- Generator: Adobe Illustrator 22.1.0, SVG Export Plug-In . SVG Version: 6.00 Build 0)  -->
<svg version="1.1" id="Layer_1" xmlns="http://www.w3.org/2000/svg" xmlns:xlink="http://www.w3.org/1999/xlink" x="0px" y="0px"
	 viewBox="0 0 54 54" style="enable-background:new 0 0 54 54;" xml:space="preserve">
<style type="text/css">
	.st0{clip-path:url(#SVGID_2_);fill:#85C445;}
</style>
<g>
	<defs>
		<rect id="SVGID_1_" width="54" height="54"/>
	</defs>
	<clipPath id="SVGID_2_">
		<use xlink:href="#SVGID_1_"  style="overflow:visible;"/>
	</clipPath>
	<path class="st0" d="M54,12c0-2.8-2.2-5-5-5H38.6l-1.7-3l-0.2-0.3C35.8,2.1,34.7,0,32,0H22c-2.8,0-4,2.3-4.9,4l-1.7,3H5
		c-2.8,0-5,2.2-5,5v13c0,1.1,0.4,2.2,1,3.2V49c0,2.8,2.2,5,5,5h42c2.8,0,5-2.2,5-5V28.2c0.6-1,1-2.1,1-3.2V12z M18.9,4.9
		C19.9,3.1,20.5,2,22,2h10c1.4,0,2,1,3,2.7L36.3,7H17.7L18.9,4.9z M2,12c0-1.7,1.3-3,3-3h44c1.7,0,3,1.3,3,3v13c0,1.7-1.4,3.6-3.1,4
		L33,33v-2c0-1.6-1.3-3-3-3h-6c-1.6,0-3,1.4-3,3v2L5.1,29C3.4,28.6,2,26.7,2,25V12z M31,31v5c0,0.7-0.6,1.5-1.2,1.7
		c-1.8,0.5-3.8,0.5-5.6,0c-0.6-0.2-1.2-1-1.2-1.7v-5c0-0.5,0.5-1,1-1h6C30.5,30,31,30.5,31,31 M48,52H6c-1.7,0-3-1.3-3-3V30.2
		c0.5,0.3,1.1,0.6,1.6,0.7l16.1,4c0.1,0,0.2,0,0.2,0v1c0,1.6,1.2,3.2,2.7,3.6c1.1,0.3,2.2,0.4,3.3,0.4s2.2-0.1,3.3-0.4
		c1.5-0.4,2.7-2,2.7-3.6v-1c0.1,0,0.2,0,0.2,0l16.1-4c0.6-0.1,1.1-0.4,1.6-0.7V49C51,50.7,49.7,52,48,52"/>
</g>
</svg>
