<svg id="Layer_1" height="512" viewBox="0 0 512 512" width="512" xmlns="http://www.w3.org/2000/svg" xmlns:xlink="http://www.w3.org/1999/xlink" data-name="Layer 1"><linearGradient id="linear-gradient" gradientUnits="userSpaceOnUse" x1="256" x2="256" y1="449.81" y2="74.185"><stop offset=".322" stop-color="#a163f5"/><stop offset=".466" stop-color="#b074ee"/><stop offset=".752" stop-color="#d8a1dd"/><stop offset=".898" stop-color="#efbad3"/></linearGradient><linearGradient id="linear-gradient-2" x1="97" x2="97" xlink:href="#linear-gradient" y1="449.81" y2="74.185"/><linearGradient id="linear-gradient-4" x1="399.497" x2="399.497" xlink:href="#linear-gradient" y1="449.81" y2="74.185"/><linearGradient id="linear-gradient-5" x1="336.059" x2="336.059" xlink:href="#linear-gradient" y1="449.81" y2="74.185"/><linearGradient id="linear-gradient-6" x1="216.067" x2="216.067" xlink:href="#linear-gradient" y1="449.81" y2="74.185"/><linearGradient id="linear-gradient-7" x1="381.655" x2="381.655" xlink:href="#linear-gradient" y1="449.81" y2="74.185"/><linearGradient id="linear-gradient-8" x1="264.694" x2="264.694" xlink:href="#linear-gradient" y1="449.81" y2="74.185"/><linearGradient id="linear-gradient-9" x1="162.543" x2="162.543" xlink:href="#linear-gradient" y1="449.81" y2="74.185"/><linearGradient id="linear-gradient-10" x1="298.277" x2="298.277" xlink:href="#linear-gradient" y1="449.81" y2="74.185"/><linearGradient id="linear-gradient-11" x1="153.622" x2="153.622" xlink:href="#linear-gradient" y1="449.81" y2="74.185"/><linearGradient id="linear-gradient-12" x1="276" x2="276" xlink:href="#linear-gradient" y1="449.81" y2="74.185"/><linearGradient id="linear-gradient-13" x1="279" x2="279" xlink:href="#linear-gradient" y1="449.81" y2="74.185"/><path d="m407.163 11h-302.326c-22.427 0-40.837 18.017-40.837 40.352v409.148c0 22.33 18.41 40.5 40.837 40.5h302.326c22.427 0 40.837-18.017 40.837-40.352v-409.143c0-22.335-18.41-40.505-40.837-40.505zm-296.163 478h-6.163a28.763 28.763 0 0 1 -28.837-28.5v-38.49c8 7.293 17.66 12 28.837 12h6.163zm325-28.5a28.763 28.763 0 0 1 -28.837 28.5h-284.163v-11h284.163a6 6 0 0 0 0-12h-284.163v-9h284.163a6 6 0 0 0 0-12h-284.163v-11h284.163c11.177 0 20.837-4.7 28.837-12zm0-67.188a28.923 28.923 0 0 1 -28.837 28.688h-284.163v-303a6 6 0 0 0 -12 0v303h-6.163a28.923 28.923 0 0 1 -28.837-28.693v-341.802a28.763 28.763 0 0 1 28.837-28.505h6.163v56a6 6 0 0 0 12 0v-56h284.163a28.763 28.763 0 0 1 28.837 28.505z" fill="url(#linear-gradient)"/><path d="m97 61.537a6 6 0 0 0 -6 6v135.663a6 6 0 1 0 12 0v-135.663a6 6 0 0 0 -6-6z" fill="url(#linear-gradient-2)"/><path d="m97 35.689a6 6 0 0 0 -6 6v5.357a6 6 0 0 0 12 0v-5.357a6 6 0 0 0 -6-6z" fill="url(#linear-gradient-2)"/><path d="m404.215 316h-9.437a6 6 0 0 0 0 12h9.437a6 6 0 0 0 0-12z" fill="url(#linear-gradient-4)"/><path d="m317.229 328h37.66a6 6 0 0 0 0-12h-37.66a6 6 0 0 0 0 12z" fill="url(#linear-gradient-5)"/><path d="m151.523 328h129.087a6 6 0 0 0 0-12h-129.087a6 6 0 0 0 0 12z" fill="url(#linear-gradient-6)"/><path d="m404.215 275h-45.115a6 6 0 0 0 0 12h45.119a6 6 0 0 0 0-12z" fill="url(#linear-gradient-7)"/><path d="m325.206 281a6 6 0 0 0 -6-6h-109.024a6 6 0 0 0 0 12h109.024a6 6 0 0 0 6-6z" fill="url(#linear-gradient-8)"/><path d="m151.523 287h22.039a6 6 0 0 0 0-12h-22.039a6 6 0 0 0 0 12z" fill="url(#linear-gradient-9)"/><path d="m404.215 357h-211.875a6 6 0 0 0 0 12h211.875a6 6 0 0 0 0-12z" fill="url(#linear-gradient-10)"/><path d="m155.721 357h-4.2a6 6 0 0 0 0 12h4.2a6 6 0 0 0 0-12z" fill="url(#linear-gradient-11)"/><path d="m229 181h27v27c0 3.313 3.687 7 7 7h28c3.313 0 5-3.687 5-7v-27h29c3.313 0 5-3.687 5-7v-25c0-3.313-1.687-5-5-5h-29v-30c0-3.313-1.687-5-5-5h-28c-3.313 0-7 1.687-7 5v30h-27c-3.313 0-7 1.687-7 5v25c0 3.313 3.687 7 7 7zm5-25h29c3.313 0 5-3.687 5-7v-28h16v28c0 3.313 3.687 7 7 7h27v13h-27c-3.313 0-7 1.687-7 5v29h-16v-29c0-3.313-1.687-5-5-5h-29z" fill="url(#linear-gradient-12)"/><path d="m279 249.648a91.648 91.648 0 1 0 -91.648-91.648 91.752 91.752 0 0 0 91.648 91.648zm0-171.3a79.648 79.648 0 1 1 -79.648 79.652 79.738 79.738 0 0 1 79.648-79.648z" fill="url(#linear-gradient-13)"/></svg>