<?xml version="1.0" encoding="utf-8"?>
<!-- Generator: Adobe Illustrator 22.1.0, SVG Export Plug-In . SVG Version: 6.00 Build 0)  -->
<svg version="1.1" id="Layer_1" xmlns="http://www.w3.org/2000/svg" xmlns:xlink="http://www.w3.org/1999/xlink" x="0px" y="0px"
	 viewBox="0 0 54 54" style="enable-background:new 0 0 54 54;" xml:space="preserve">
<style type="text/css">
	.st0{clip-path:url(#SVGID_2_);fill:#1476BB;}
</style>
<g>
	<defs>
		<rect id="SVGID_1_" y="0.9" width="54" height="52.1"/>
	</defs>
	<clipPath id="SVGID_2_">
		<use xlink:href="#SVGID_1_"  style="overflow:visible;"/>
	</clipPath>
	<path class="st0" d="M54,6.4c0-3.6-8-5.5-16-5.5c-8,0-16,1.9-16,5.5c0,0.1,0,0.2,0,0.3c0,0.1,0,0.1,0,0.2v17.4
		c-1.9-0.2-4-0.4-6-0.4c-7,0-14,1.5-15.6,4.3C0.1,28.4,0,28.6,0,28.9v18.5c0,3.7,8.2,5.6,16,5.6c7.7,0,16-1.7,16-5.4V28.9
		c0-0.3-0.1-0.6-0.4-0.7c-1-1.7-3.9-2.9-7.6-3.6v-3.4c2.9,1.8,8.5,2.7,14,2.7c5.5,0,11.1-0.9,14-2.7v3.2c0,1.2-4.9,3.5-14,3.5
		c-1.3,0-2.5,0-3.7-0.1c-0.6,0-1,0.4-1.1,0.9c0,0.6,0.4,1,0.9,1.1c1.3,0.1,2.6,0.1,3.9,0.1c5.5,0,11.1-0.9,14-2.7v3.2
		c0,1.2-4.9,3.5-14,3.5c-1.2,0-2.4,0-3.5-0.1c-0.6,0-1,0.4-1.1,0.9c0,0.6,0.4,1,0.9,1.1c1.2,0.1,2.4,0.1,3.7,0.1
		c5.5,0,11.1-0.9,14-2.7v3.4c0,1.2-4.8,3.4-14,3.4c-1.2,0-2.4,0-3.5-0.1c-0.6,0-1,0.4-1.1,0.9c0,0.6,0.4,1,0.9,1.1
		c1.2,0.1,2.4,0.1,3.7,0.1c7.7,0,16-1.7,16-5.4V6.9c0-0.1,0-0.1,0-0.2C54,6.6,54,6.5,54,6.4 M30,41.4c0,1.2-4.9,3.5-14,3.5
		c-9.1,0-14-2.3-14-3.5v-3.2c2.9,1.8,8.5,2.7,14,2.7c5.5,0,11.1-0.9,14-2.7V41.4z M30,35.4c0,1.2-4.9,3.5-14,3.5
		c-9.1,0-14-2.3-14-3.5v-3.2c2.9,1.8,8.5,2.7,14,2.7c5.5,0,11.1-0.9,14-2.7V35.4z M16,51.1c-8.7,0-14-2.3-14-3.6v-3.2
		c2.9,1.8,8.5,2.7,14,2.7c5.5,0,11.1-0.9,14-2.7v3.4C30,48.9,25.2,51.1,16,51.1 M30,29.4c0,1.2-4.9,3.5-14,3.5c-9.1,0-14-2.3-14-3.5
		c0-1.2,4.9-3.5,14-3.5C25.1,25.9,30,28.2,30,29.4 M52,12.4c0,1.2-4.9,3.5-14,3.5c-9.1,0-14-2.3-14-3.5V9.2c2.9,1.8,8.5,2.7,14,2.7
		c5.5,0,11.1-0.9,14-2.7V12.4z M38,2.9c9.1,0,14,2.3,14,3.5c0,1.2-4.9,3.5-14,3.5c-9.1,0-14-2.3-14-3.5C24,5.3,28.9,2.9,38,2.9
		 M38,21.9c-9.1,0-14-2.3-14-3.5v-3.2c2.9,1.8,8.5,2.7,14,2.7c5.5,0,11.1-0.9,14-2.7v3.2C52,19.6,47.1,21.9,38,21.9"/>
</g>
</svg>
