<?xml version="1.0" encoding="utf-8"?>
<!-- Generator: Adobe Illustrator 22.1.0, SVG Export Plug-In . SVG Version: 6.00 Build 0)  -->
<svg version="1.1" id="Layer_1" xmlns="http://www.w3.org/2000/svg" xmlns:xlink="http://www.w3.org/1999/xlink" x="0px" y="0px"
	 viewBox="0 0 54 54" style="enable-background:new 0 0 54 54;" xml:space="preserve">
<style type="text/css">
	.st0{clip-path:url(#SVGID_2_);fill:#F79522;}
</style>
<g>
	<defs>
		<rect id="SVGID_1_" x="0.1" y="9.6" width="53.7" height="34.8"/>
	</defs>
	<clipPath id="SVGID_2_">
		<use xlink:href="#SVGID_1_"  style="overflow:visible;"/>
	</clipPath>
	<path class="st0" d="M50.9,31.6v-9.8c0.6-0.4,0.7-1,0.7-1.3c0-0.4-0.2-1.2-1.4-1.7L28.1,10c-1.2-0.5-3.2-0.5-4.5,0L1.5,18.8
		c-1.2,0.5-1.4,1.3-1.4,1.7s0.2,1.2,1.4,1.7l8.3,3.3v12c0,0.3,0.1,0.5,0.3,0.7c4.4,4.1,10,6.2,15.7,6.2s11.3-2.1,15.7-6.2
		c0.2-0.2,0.3-0.5,0.3-0.7v-12l7-2.8v8.9c-1.7,0.4-3,2-3,3.9c0,2.2,1.8,4,4,4c2.2,0,4-1.8,4-4C53.9,33.6,52.6,32.1,50.9,31.6
		 M39.9,37c-7.9,7.2-20.1,7.2-28,0V26.3L23.6,31c0.6,0.2,1.4,0.4,2.2,0.4s1.6-0.1,2.2-0.4l11.8-4.7V37z M27.3,29.1
		c-0.7,0.3-2.2,0.3-3,0L2.7,20.5l21.6-8.6c0.7-0.3,2.2-0.3,3,0l21.5,8.6c0,0,0,0,0,0v0L27.3,29.1z M49.9,37.5c-1.1,0-2-0.9-2-2
		c0-1.1,0.9-2,2-2c1.1,0,2,0.9,2,2C51.9,36.6,51,37.5,49.9,37.5"/>
</g>
</svg>
