<?xml version="1.0" encoding="utf-8"?>
<!-- Generator: Adobe Illustrator 22.1.0, SVG Export Plug-In . SVG Version: 6.00 Build 0)  -->
<svg version="1.1" id="Layer_1" xmlns="http://www.w3.org/2000/svg" xmlns:xlink="http://www.w3.org/1999/xlink" x="0px" y="0px"
	 viewBox="0 0 54 54" style="enable-background:new 0 0 54 54;" xml:space="preserve">
<style type="text/css">
	.st0{clip-path:url(#SVGID_2_);fill:#F79522;}
</style>
<g>
	<defs>
		<rect id="SVGID_1_" x="4" width="46" height="54"/>
	</defs>
	<clipPath id="SVGID_2_">
		<use xlink:href="#SVGID_1_"  style="overflow:visible;"/>
	</clipPath>
	<path class="st0" d="M45,0H9C6.2,0,4,2.2,4,5v44c0,2.8,2.2,5,5,5h36c2.8,0,5-2.2,5-5V5C50,2.2,47.8,0,45,0 M48,49c0,1.7-1.3,3-3,3
		H9c-1.7,0-3-1.3-3-3V5c0-1.7,1.3-3,3-3h36c1.7,0,3,1.3,3,3V49z"/>
	<path class="st0" d="M27.1,7.9c-6.7,0-12.1,5.4-12.1,12.1c0,6.7,5.4,12.1,12.1,12.1c6.7,0,12.1-5.4,12.1-12.1
		C39.2,13.3,33.8,7.9,27.1,7.9 M36.5,23.6c-1.5-0.6-2.9-1-4.3-1.3c0.1-0.8,0.1-1.5,0.1-2.3c0-0.8,0-1.6-0.1-2.4
		c1.4-0.3,2.8-0.7,4.2-1.3c0.5,1.2,0.7,2.4,0.7,3.7C37.2,21.3,37,22.5,36.5,23.6 M27.1,30c-1,0-2.4-2.2-3-5.9
		c1.8-0.2,3.8-0.3,5.9-0.1C29.4,27.7,28.1,30,27.1,30 M23.9,22.1c-0.1-0.7-0.1-1.3-0.1-2.1c0-0.7,0-1.4,0.1-2.1
		c1,0.1,2.1,0.2,3.2,0.2c1,0,2.1-0.1,3.2-0.2c0,0.7,0.1,1.3,0.1,2.1c0,0.7,0,1.4-0.1,2C27.9,21.7,25.8,21.8,23.9,22.1 M27.1,10
		c1,0,2.4,2.2,3,5.9c-2.1,0.3-4.1,0.2-5.9,0C24.7,12.2,26.1,10,27.1,10 M35.6,14.5c-1.2,0.5-2.4,0.9-3.6,1.1c-0.3-2-0.9-3.8-1.7-5.2
		C32.5,11.2,34.3,12.6,35.6,14.5 M23.8,10.4c-0.8,1.4-1.4,3.2-1.7,5.2c-1.7-0.3-3-0.7-3.7-0.9C19.6,12.7,21.5,11.2,23.8,10.4
		 M17.5,16.6c0.8,0.3,2.3,0.7,4.4,1.1c-0.1,0.8-0.1,1.6-0.1,2.3c0,0.8,0,1.6,0.1,2.4c-2,0.4-3.5,0.9-4.3,1.2
		c-0.4-1.1-0.7-2.4-0.7-3.6C16.9,18.8,17.1,17.7,17.5,16.6 M18.5,25.4c0.7-0.3,2-0.7,3.6-1c0.3,2,0.9,3.8,1.7,5.2
		C21.6,28.8,19.8,27.4,18.5,25.4 M30.3,29.6c0.8-1.4,1.4-3.2,1.7-5.3c1.2,0.2,2.4,0.6,3.6,1.1C34.4,27.3,32.5,28.8,30.3,29.6"/>
	<path class="st0" d="M15.6,38.5h-2.1c-0.6,0-0.9,0.4-0.9,0.9v6.7c0,0.6,0.4,0.9,0.9,0.9s0.9-0.3,0.9-0.9v-2h1.3c1.6,0,3-1.1,3-2.8
		C18.7,39.6,17.4,38.5,15.6,38.5 M15.6,42.6h-1.2V40h1.2c0.8,0,1.2,0.6,1.2,1.3C16.8,42,16.3,42.6,15.6,42.6"/>
	<path class="st0" d="M24.7,39.3c-0.2-0.6-0.6-1-1.3-1c-0.6,0-1.1,0.4-1.3,1l-2.4,6.5c0,0.1-0.1,0.2-0.1,0.4c0,0.5,0.4,0.8,0.9,0.8
		c0.5,0,0.7-0.3,0.9-0.6l0.4-1.1h3.3l0.4,1.1c0.1,0.4,0.4,0.6,0.9,0.6c0.4,0,0.8-0.3,0.8-0.8c0-0.1,0-0.3-0.1-0.4L24.7,39.3z
		 M22.2,43.7l1.1-3.5h0l1.1,3.5H22.2z"/>
	<path class="st0" d="M30.3,40.8c0-0.5,0.5-0.8,1-0.8c0.7,0,1.1,0.4,1.6,0.4c0.5,0,0.8-0.4,0.8-0.9c0-0.9-1.7-1.2-2.4-1.2
		c-1.6,0-3,1-3,2.7c0,2.8,4,1.9,4,3.3c0,0.6-0.4,1-1.2,1c-0.8,0-1.5-0.5-2-0.5c-0.5,0-0.8,0.4-0.8,0.9c0,1.1,2,1.3,2.9,1.3
		c1.7,0,3.1-1.1,3.1-2.8C34.3,41.3,30.3,42.1,30.3,40.8"/>
	<path class="st0" d="M37.7,40.8c0-0.5,0.5-0.8,1-0.8c0.7,0,1.1,0.4,1.6,0.4c0.5,0,0.8-0.4,0.8-0.9c0-0.9-1.7-1.2-2.4-1.2
		c-1.6,0-3,1-3,2.7c0,2.8,4,1.9,4,3.3c0,0.6-0.4,1-1.2,1c-0.8,0-1.5-0.5-2-0.5c-0.5,0-0.8,0.4-0.8,0.9c0,1.1,2,1.3,2.9,1.3
		c1.7,0,3.1-1.1,3.1-2.8C41.7,41.3,37.7,42.1,37.7,40.8"/>
</g>
</svg>
